<svg width="81" height="20" viewBox="0 0 81 20" fill="none" xmlns="http://www.w3.org/2000/svg">
<path fill-rule="evenodd" clip-rule="evenodd" d="M9.68705 0L0.661133 19.9743H11.4664L12.806 16.7896H15.8679L17.2074 19.9743H29.101V17.5436L30.1608 19.9743H36.3131L37.3729 17.4922V19.9743H62.1083L65.116 16.8723L67.9323 19.9743L80.6369 20L71.5825 10.0429L80.6369 0H68.1293L65.2015 3.0447L62.4739 0H35.565L33.2543 5.15554L30.8894 0H20.1067V2.34798L18.9072 0H9.68705ZM46.624 2.83618H60.8283L65.1727 7.52902L69.6572 2.83618H74.0016L67.4007 10.0399L74.0016 17.1606H69.4601L65.1157 12.4133L60.6084 17.1606H46.624V2.83618ZM50.1318 8.42072V5.80426V5.80176H58.9949L62.8622 9.98615L58.8235 14.1934H50.1318V11.337H57.8809V8.42072H50.1318ZM11.7778 2.83618H17.0448L23.0317 16.3809V2.83618H28.8015L33.4257 12.5477L37.6874 2.83618H43.4284V17.1691H39.9351L39.9066 5.9379L34.8138 17.1691H31.6889L26.5676 5.9379V17.1691H19.3812L18.0188 13.9558H10.6582L9.29864 17.1662H5.44824L11.7778 2.83618ZM11.9131 10.9856L14.3381 5.26147L16.7603 10.9856H11.9131Z" fill="white"/>
</svg>
