<svg width="49" height="20" viewBox="0 0 49 20" fill="none" xmlns="http://www.w3.org/2000/svg">
<path fill-rule="evenodd" clip-rule="evenodd" d="M6.46285 3.71077C7.37067 3.78689 8.27849 3.25406 8.84587 2.57851C9.4038 1.88393 9.7726 0.951479 9.67804 0C8.87424 0.0380591 7.88131 0.532828 7.31393 1.22741C6.79382 1.82684 6.34937 2.79735 6.46285 3.71077ZM17.262 15.9659V1.13232H22.794C25.6498 1.13232 27.6452 3.1114 27.6452 6.00389C27.6452 8.89639 25.612 10.8945 22.7183 10.8945H19.5504V15.9659H17.262ZM9.66841 3.89154C8.86863 3.84523 8.13888 4.13355 7.54943 4.36643C7.17011 4.5163 6.84889 4.64321 6.60452 4.64321C6.33028 4.64321 5.9958 4.50951 5.62025 4.3594C5.12817 4.16271 4.56559 3.93784 3.97562 3.94863C2.62335 3.96766 1.36564 4.73836 0.675318 5.96576C-0.743151 8.42058 0.306516 12.0552 1.6777 14.0533C2.34911 15.0429 3.15291 16.1276 4.21203 16.0895C4.67798 16.0718 5.01316 15.9287 5.36004 15.7806C5.75939 15.6101 6.17424 15.433 6.82201 15.433C7.44733 15.433 7.84404 15.6055 8.22486 15.7711C8.58696 15.9285 8.93469 16.0797 9.45091 16.0705C10.5479 16.0514 11.2382 15.0809 11.9096 14.0914C12.6341 13.0294 12.9525 11.9929 13.0009 11.8356L13.0009 11.8356L13.0009 11.8356L13.0065 11.8174C13.0054 11.8162 12.9964 11.8121 12.9806 11.8048C12.7384 11.6932 10.8871 10.8405 10.8694 8.55378C10.8516 6.63444 12.3378 5.66198 12.5717 5.5089C12.586 5.49958 12.5956 5.4933 12.5999 5.49002C11.6543 4.08184 10.1791 3.9296 9.66841 3.89154ZM31.8249 16.0799C33.2623 16.0799 34.5957 15.3472 35.2009 14.1864H35.2482V15.9657H37.3664V8.58224C37.3664 6.44141 35.6643 5.06177 33.0448 5.06177C30.6145 5.06177 28.8178 6.46044 28.7516 8.38243H30.8131C30.9833 7.46901 31.8249 6.86958 32.9786 6.86958C34.3782 6.86958 35.1631 7.5261 35.1631 8.73447V9.55274L32.3072 9.72401C29.6499 9.88576 28.2126 10.98 28.2126 12.8829C28.2126 14.8049 29.6972 16.0799 31.8249 16.0799ZM32.4381 14.3198C31.2182 14.3198 30.4428 13.7298 30.4428 12.8259C30.4428 11.8935 31.1898 11.3511 32.6178 11.2655L35.1615 11.1038V11.9411C35.1615 13.3302 33.9889 14.3198 32.4381 14.3198ZM44.3926 16.5462C43.4753 19.1437 42.4257 20.0001 40.1939 20.0001C40.0237 20.0001 39.4563 19.981 39.3239 19.943V18.1637C39.4658 18.1828 39.8157 18.2018 39.9953 18.2018C41.0072 18.2018 41.5746 17.7736 41.9245 16.6604L42.1325 16.0039L38.2554 5.20459H40.6478L43.3429 13.9677H43.3902L46.0853 5.20459H48.4116L44.3926 16.5462ZM19.5492 3.07312H22.1875C24.1734 3.07312 25.3081 4.13878 25.3081 6.01319C25.3081 7.8876 24.1734 8.96277 22.1781 8.96277H19.5492V3.07312Z" fill="white"/>
</svg>
