<svg width="34" height="20" viewBox="0 0 34 20" fill="none" xmlns="http://www.w3.org/2000/svg">
<path fill-rule="evenodd" clip-rule="evenodd" d="M16.9398 17.6111C15.2136 19.1007 12.9745 20 10.5278 20C5.06833 20 0.642578 15.5228 0.642578 10C0.642578 4.47715 5.06833 0 10.5278 0C12.9745 0 15.2136 0.89925 16.9398 2.38886C18.666 0.89925 20.9051 0 23.3518 0C28.8113 0 33.237 4.47715 33.237 10C33.237 15.5228 28.8113 20 23.3518 20C20.9051 20 18.666 19.1007 16.9398 17.6111Z" fill="white"/>
<path fill-rule="evenodd" clip-rule="evenodd" d="M16.9395 17.6111C19.0649 15.7769 20.4125 13.0477 20.4125 10C20.4125 6.95235 19.0649 4.22312 16.9395 2.38894C18.6656 0.89928 20.9048 0 23.3516 0C28.811 0 33.2368 4.47715 33.2368 10C33.2368 15.5228 28.811 20 23.3516 20C20.9048 20 18.6656 19.1007 16.9395 17.6111Z" fill="white"/>
<path fill-rule="evenodd" clip-rule="evenodd" d="M16.9399 17.6109C19.0654 15.7767 20.4131 13.0474 20.4131 9.99977C20.4131 6.9521 19.0654 4.22286 16.9399 2.38867C14.8145 4.22286 13.4668 6.9521 13.4668 9.99977C13.4668 13.0474 14.8145 15.7767 16.9399 17.6109Z" fill="white"/>
<path d="M16.9399 17.6109L16.6133 17.9894L16.9399 18.2713L17.2666 17.9894L16.9399 17.6109ZM16.9399 2.38867L17.2666 2.01014L16.9399 1.72823L16.6133 2.01014L16.9399 2.38867ZM19.9131 9.99977C19.9131 12.8971 18.6325 15.4898 16.6133 17.2323L17.2666 17.9894C19.4983 16.0635 20.9131 13.1978 20.9131 9.99977H19.9131ZM16.6133 2.76721C18.6325 4.50972 19.9131 7.10246 19.9131 9.99977H20.9131C20.9131 6.80173 19.4983 3.93599 17.2666 2.01014L16.6133 2.76721ZM13.9668 9.99977C13.9668 7.10246 15.2474 4.50972 17.2666 2.76721L16.6133 2.01014C14.3816 3.93599 12.9668 6.80173 12.9668 9.99977H13.9668ZM17.2666 17.2323C15.2474 15.4898 13.9668 12.8971 13.9668 9.99977H12.9668C12.9668 13.1978 14.3816 16.0635 16.6133 17.9894L17.2666 17.2323Z" fill="#83AC72"/>
</svg>
