<svg width="76" height="20" viewBox="0 0 76 20" fill="none" xmlns="http://www.w3.org/2000/svg">
<path fill-rule="evenodd" clip-rule="evenodd" d="M9.24402 0H3.40613C3.00663 0 2.66687 0.290339 2.60457 0.684569L0.243429 15.6543C0.196499 15.9497 0.425264 16.216 0.724895 16.216H3.51196C3.91146 16.216 4.25122 15.9256 4.31352 15.5306L4.95035 11.4931C5.01178 11.0977 5.35237 10.8078 5.75104 10.8078H7.59911C11.4447 10.8078 13.664 8.94681 14.2439 5.2593C14.5051 3.64604 14.255 2.37841 13.4993 1.49041C12.6697 0.515894 11.1978 0 9.24402 0ZM9.91755 5.46748C9.59836 7.56227 7.99778 7.56227 6.45016 7.56227H5.5692L6.18723 3.64999C6.22393 3.41376 6.42879 3.23956 6.66782 3.23956H7.07159C8.12581 3.23956 9.12038 3.23956 9.63432 3.84038C9.94047 4.19906 10.0345 4.73155 9.91755 5.46748ZM26.6949 5.40032H23.8993C23.6611 5.40032 23.4553 5.57453 23.4185 5.81114L23.2949 6.59289L23.0994 6.30966C22.4942 5.43113 21.1447 5.13763 19.7977 5.13763C16.7081 5.13763 14.0697 7.47734 13.5558 10.7596C13.2888 12.3965 13.6684 13.962 14.5971 15.0538C15.4492 16.0576 16.6682 16.4759 18.1184 16.4759C20.6075 16.4759 21.9881 14.8753 21.9881 14.8753L21.8633 15.6523C21.8163 15.9493 22.045 16.2156 22.3429 16.2156H24.8612C25.2618 16.2156 25.5995 15.9252 25.6627 15.5302L27.1737 5.96204C27.2215 5.66775 26.9936 5.40032 26.6949 5.40032ZM22.7979 10.8413C22.5281 12.4384 21.2605 13.5105 19.644 13.5105C18.8322 13.5105 18.1832 13.2502 17.7668 12.7568C17.3536 12.267 17.1964 11.5694 17.3279 10.7927C17.58 9.20911 18.869 8.10226 20.4609 8.10226C21.2546 8.10226 21.9 8.36574 22.3251 8.86346C22.7509 9.36632 22.92 10.0679 22.7979 10.8413ZM38.7746 5.39993H41.5841C41.9775 5.39993 42.207 5.84116 41.9834 6.1639L32.6398 19.6507C32.4885 19.8691 32.2392 19.9991 31.973 19.9991H29.167C28.772 19.9991 28.5413 19.5543 28.77 19.2308L31.6794 15.1241L28.5852 6.04341C28.4781 5.72779 28.7112 5.39993 29.0469 5.39993H31.8074C32.1661 5.39993 32.4825 5.63536 32.586 5.97863L34.2282 11.4631L38.103 5.75584C38.2547 5.53305 38.5068 5.39993 38.7746 5.39993Z" fill="white"/>
<path fill-rule="evenodd" clip-rule="evenodd" d="M69.2337 15.655L71.6295 0.411613C71.6663 0.174995 71.8713 0.00079004 72.1095 0H74.8068C75.1046 0 75.3334 0.267033 75.2864 0.562508L72.9237 15.5314C72.862 15.9264 72.5223 16.2168 72.1221 16.2168H69.7133C69.4154 16.2168 69.1867 15.9505 69.2337 15.655ZM50.8849 0.000791113H45.0459C44.6473 0.000791113 44.3076 0.29113 44.2452 0.68536L41.8841 15.655C41.8371 15.9505 42.0658 16.2168 42.364 16.2168H45.36C45.6385 16.2168 45.8767 16.0137 45.9201 15.7372L46.5901 11.4939C46.6517 11.0985 46.9922 10.8085 47.3908 10.8085H49.238C53.0844 10.8085 55.3033 8.9476 55.8836 5.26009C56.1455 3.64683 55.8939 2.37921 55.1386 1.4912C54.3094 0.516685 52.8387 0.000791113 50.8849 0.000791113ZM51.5584 5.46827C51.24 7.56306 49.6393 7.56306 48.0908 7.56306H47.2107L47.8297 3.65078C47.8664 3.41456 48.0695 3.24035 48.3093 3.24035H48.713C49.7665 3.24035 50.762 3.24035 51.2756 3.84118C51.5821 4.19985 51.6753 4.73234 51.5584 5.46827ZM68.3342 5.40111H65.5405C65.3003 5.40111 65.0965 5.57532 65.0606 5.81193L64.9369 6.59368L64.7406 6.31045C64.1354 5.43192 62.7868 5.13842 61.4397 5.13842C58.3502 5.13842 55.7125 7.47813 55.1986 10.7604C54.9324 12.3973 55.3104 13.9628 56.2391 15.0546C57.0928 16.0584 58.3103 16.4767 59.7604 16.4767C62.2495 16.4767 63.6298 14.8761 63.6298 14.8761L63.5053 15.6531C63.4583 15.9501 63.687 16.2164 63.9869 16.2164H66.504C66.9026 16.2164 67.2423 15.926 67.3047 15.531L68.8165 5.96283C68.8627 5.66854 68.634 5.40111 68.3342 5.40111ZM64.4376 10.8421C64.1694 12.4392 62.9001 13.5113 61.2833 13.5113C60.4731 13.5113 59.8228 13.251 59.4061 12.7576C58.9929 12.2678 58.8376 11.5701 58.9676 10.7935C59.2208 9.2099 60.5082 8.10305 62.1002 8.10305C62.8942 8.10305 63.5393 8.36653 63.9648 8.86425C64.3922 9.36711 64.5612 10.0687 64.4376 10.8421Z" fill="white"/>
</svg>
