<svg width="63" height="20" viewBox="0 0 63 20" fill="none" xmlns="http://www.w3.org/2000/svg">
<path fill-rule="evenodd" clip-rule="evenodd" d="M15.6673 19.8442H10.2439L6.17703 4.32879C5.98399 3.61508 5.57413 2.98412 4.97124 2.68674C3.46664 1.93941 1.80868 1.34466 0 1.04469V0.447347H8.73668C9.94247 0.447347 10.8468 1.34466 10.9975 2.38678L13.1077 13.5786L18.5284 0.447347H23.8011L15.6673 19.8442ZM26.8153 19.8441H21.6934L25.911 0.447266H31.0329L26.8153 19.8441ZM37.6598 5.82087C37.8105 4.77617 38.7148 4.17882 39.7699 4.17882C41.4278 4.02884 43.2339 4.32881 44.7411 5.07355L45.6455 0.897309C44.1382 0.299965 42.4803 0 40.9757 0C36.0044 0 32.3871 2.68676 32.3871 6.41563C32.3871 9.25237 34.9494 10.7418 36.7581 11.6392C38.7148 12.5339 39.4684 13.1312 39.3177 14.026C39.3177 15.368 37.8105 15.9654 36.3059 15.9654C34.4972 15.9654 32.6885 15.518 31.0332 14.7707L30.1289 18.9495C31.9375 19.6943 33.8943 19.9942 35.703 19.9942C41.2771 20.1416 44.7411 17.4574 44.7411 13.4286C44.7411 8.35506 37.6598 8.05768 37.6598 5.82087ZM62.6661 19.8441L58.5992 0.447266H54.2309C53.3265 0.447266 52.4222 1.04461 52.1207 1.93933L44.5898 19.8441H49.8625L50.9149 17.01H57.3934L57.9963 19.8441H62.6661ZM54.9845 5.6709L56.4891 12.9813H52.2715L54.9845 5.6709Z" fill="white"/>
</svg>
