<svg width="34" height="15" viewBox="0 0 34 15" fill="none" xmlns="http://www.w3.org/2000/svg">
<path fill-rule="evenodd" clip-rule="evenodd" d="M15.7063 11.4084V7.38047H17.7852C18.6371 7.38047 19.3561 7.09502 19.9422 6.53206L20.0829 6.38934C21.1536 5.22378 21.0833 3.40803 19.9422 2.32969C19.3717 1.7588 18.5902 1.44957 17.7852 1.46542H14.448V11.4084H15.7063ZM15.7057 6.15846V2.68555H17.8162C18.2696 2.68555 18.6995 2.85999 19.02 3.17715C19.7 3.84318 19.7156 4.95325 19.059 5.64307C18.7386 5.98402 18.2852 6.17431 17.8162 6.15846H15.7057ZM25.9518 5.13607C25.4125 4.63654 24.6779 4.38281 23.7479 4.38281C22.5521 4.38281 21.6533 4.82684 21.0594 5.70696L22.1691 6.41264C22.5755 5.81004 23.1304 5.50873 23.8338 5.50873C24.2793 5.50873 24.7092 5.67524 25.0452 5.97654C25.3735 6.26199 25.561 6.6743 25.561 7.11039V7.40377C25.0765 7.13418 24.4669 6.99146 23.7166 6.99146C22.8413 6.99146 22.1379 7.19761 21.6143 7.61785C21.0906 8.03809 20.8249 8.59312 20.8249 9.2988C20.8093 9.94105 21.0828 10.5516 21.5674 10.9639C22.0597 11.4079 22.685 11.6299 23.4196 11.6299C24.2871 11.6299 24.9749 11.2414 25.4985 10.4644H25.5532V11.4079H26.7568V7.21347C26.7568 6.33335 26.4911 5.6356 25.9518 5.13607ZM22.5368 10.1547C22.2788 9.96438 22.1225 9.65514 22.1225 9.32213C22.1225 8.94946 22.2944 8.64023 22.6306 8.39443C22.9745 8.14863 23.4044 8.02177 23.9125 8.02177C24.616 8.01384 25.1632 8.17242 25.554 8.48958C25.554 9.02875 25.3429 9.49656 24.9287 9.89301C24.5535 10.2736 24.0454 10.4877 23.5138 10.4877C23.1621 10.4956 22.8182 10.3767 22.5368 10.1547ZM29.4619 14.3978L33.6666 4.60547H32.2989L30.3529 9.48974H30.3294L28.3365 4.60547H26.9688L29.7276 10.9725L28.1645 14.3978H29.4619Z" fill="#3C4043"/>
<path d="M11.3629 6.50725C11.3629 6.11872 11.3316 5.7302 11.2691 5.34961H5.9624V7.54595H9.0026C8.87755 8.25163 8.47115 8.88595 7.87718 9.2824V10.7096H9.69035C10.7532 9.7185 11.3629 8.25163 11.3629 6.50725Z" fill="#4285F4"/>
<path d="M5.96281 12.0893C7.479 12.0893 8.76073 11.5818 9.69076 10.7096L7.87758 9.28242C7.36958 9.6313 6.7209 9.82953 5.96281 9.82953C4.49351 9.82953 3.25086 8.82254 2.80538 7.47461H0.9375V8.94941C1.89098 10.8762 3.83702 12.0893 5.96281 12.0893Z" fill="#34A853"/>
<path d="M2.80551 7.47559C2.57101 6.76991 2.57101 6.00079 2.80551 5.28718V3.82031H0.937333C0.132217 5.4299 0.132217 7.33287 0.937333 8.94246L2.80551 7.47559Z" fill="#FBBC04"/>
<path d="M5.96305 2.93199C6.76804 2.91613 7.54177 3.22536 8.12011 3.78832L9.73008 2.15495C8.70626 1.18761 7.36201 0.656362 5.96305 0.67222C3.83726 0.67222 1.89122 1.89329 0.937744 3.82004L2.80563 5.29484C3.25111 3.93897 4.49376 2.93199 5.96305 2.93199Z" fill="#EA4335"/>
</svg>
