<svg width="31" height="19" viewBox="0 0 31 19" fill="none" xmlns="http://www.w3.org/2000/svg">
<path fill-rule="evenodd" clip-rule="evenodd" d="M15.3335 16.2718C13.7447 17.6428 11.6838 18.4705 9.43186 18.4705C4.40697 18.4705 0.333496 14.3497 0.333496 9.26648C0.333496 4.18326 4.40697 0.0625 9.43186 0.0625C11.6838 0.0625 13.7447 0.890158 15.3335 2.26118C16.9222 0.890158 18.9831 0.0625 21.2351 0.0625C26.26 0.0625 30.3334 4.18326 30.3334 9.26648C30.3334 14.3497 26.26 18.4705 21.2351 18.4705C18.9831 18.4705 16.9222 17.6428 15.3335 16.2718Z" fill="#ED0006"/>
<path fill-rule="evenodd" clip-rule="evenodd" d="M15.3335 16.2718C17.2898 14.5836 18.5302 12.0716 18.5302 9.26648C18.5302 6.46138 17.2898 3.94936 15.3335 2.26118C16.9223 0.890159 18.9831 0.0625 21.2351 0.0625C26.26 0.0625 30.3335 4.18326 30.3335 9.26648C30.3335 14.3497 26.26 18.4705 21.2351 18.4705C18.9831 18.4705 16.9223 17.6428 15.3335 16.2718Z" fill="#F9A000"/>
<path fill-rule="evenodd" clip-rule="evenodd" d="M15.3336 16.2721C17.2898 14.5839 18.5302 12.072 18.5302 9.26691C18.5302 6.46187 17.2898 3.9499 15.3336 2.26172C13.3774 3.9499 12.137 6.46187 12.137 9.26691C12.137 12.072 13.3774 14.5839 15.3336 16.2721Z" fill="#FF5E00"/>
</svg>
