<svg width="27" height="24" viewBox="0 0 27 24" fill="none" xmlns="http://www.w3.org/2000/svg">
<path fill-rule="evenodd" clip-rule="evenodd" d="M3.20001 16.7188H1.12586C0.983919 16.7188 0.863203 16.8219 0.84107 16.962L0.00217584 22.2807C-0.0144979 22.3857 0.0667802 22.4803 0.173237 22.4803H1.16346C1.30539 22.4803 1.42611 22.3771 1.44824 22.2368L1.6745 20.8023C1.69633 20.6618 1.81734 20.5588 1.95898 20.5588H2.61559C3.98191 20.5588 4.7704 19.8976 4.97643 18.5874C5.06921 18.0142 4.98036 17.5638 4.71187 17.2483C4.41713 16.902 3.89419 16.7188 3.20001 16.7188ZM3.43931 18.6614C3.3259 19.4056 2.75723 19.4056 2.20737 19.4056H1.89438L2.11396 18.0156C2.127 17.9317 2.19978 17.8698 2.28471 17.8698H2.42816C2.80272 17.8698 3.15608 17.8698 3.33868 18.0832C3.44745 18.2107 3.48085 18.3999 3.43931 18.6614ZM9.40016 18.6375H8.4069C8.32227 18.6375 8.24914 18.6994 8.23609 18.7835L8.19216 19.0612L8.12269 18.9606C7.90767 18.6484 7.42823 18.5442 6.94963 18.5442C5.85194 18.5442 4.91454 19.3755 4.73194 20.5416C4.63706 21.1233 4.77194 21.6795 5.10191 22.0674C5.40465 22.424 5.83777 22.5727 6.353 22.5727C7.23735 22.5727 7.72788 22.004 7.72788 22.004L7.68353 22.28C7.66683 22.3856 7.74809 22.4802 7.85391 22.4802H8.74865C8.89097 22.4802 9.01097 22.377 9.03343 22.2367L9.57027 18.8371C9.58725 18.7325 9.50627 18.6375 9.40016 18.6375ZM8.0156 20.5707C7.91974 21.1381 7.46935 21.519 6.89503 21.519C6.60661 21.519 6.37602 21.4266 6.22809 21.2513C6.08128 21.0772 6.02542 20.8294 6.07216 20.5534C6.1617 19.9908 6.61967 19.5975 7.18528 19.5975C7.46725 19.5975 7.69658 19.6911 7.8476 19.8679C7.9989 20.0466 8.05897 20.2959 8.0156 20.5707ZM13.692 18.6374H14.6901C14.8299 18.6374 14.9115 18.7941 14.832 18.9088L11.5123 23.7007C11.4586 23.7783 11.37 23.8245 11.2754 23.8245H10.2785C10.1381 23.8245 10.0562 23.6664 10.1374 23.5515L11.1711 22.0924L10.0717 18.866C10.0337 18.7538 10.1165 18.6374 10.2358 18.6374H11.2166C11.344 18.6374 11.4565 18.721 11.4932 18.843L12.0767 20.7916L13.4534 18.7638C13.5073 18.6846 13.5968 18.6374 13.692 18.6374Z" fill="#253B80"/>
<path fill-rule="evenodd" clip-rule="evenodd" d="M24.5137 22.281L25.3649 16.865C25.378 16.7809 25.4508 16.719 25.5355 16.7188H26.4938C26.5996 16.7188 26.6809 16.8136 26.6642 16.9186L25.8247 22.2371C25.8028 22.3774 25.6821 22.4806 25.5399 22.4806H24.6841C24.5783 22.4806 24.497 22.386 24.5137 22.281ZM17.9945 16.719H15.92C15.7784 16.719 15.6577 16.8222 15.6355 16.9623L14.7966 22.281C14.7799 22.386 14.8612 22.4806 14.9671 22.4806H16.0316C16.1305 22.4806 16.2151 22.4084 16.2306 22.3102L16.4686 20.8025C16.4905 20.6621 16.6115 20.559 16.7531 20.559H17.4094C18.776 20.559 19.5643 19.8978 19.7705 18.5877C19.8636 18.0145 19.7742 17.5641 19.5058 17.2486C19.2112 16.9023 18.6887 16.719 17.9945 16.719ZM18.2338 18.6616C18.1207 19.4059 17.552 19.4059 17.0018 19.4059H16.6891L16.909 18.0159C16.9221 17.9319 16.9942 17.8701 17.0794 17.8701H17.2229C17.5972 17.8701 17.9509 17.8701 18.1333 18.0835C18.2422 18.211 18.2754 18.4002 18.2338 18.6616ZM24.1941 18.6378H23.2015C23.1162 18.6378 23.0438 18.6997 23.031 18.7837L22.9871 19.0615L22.9173 18.9609C22.7023 18.6487 22.2232 18.5444 21.7446 18.5444C20.6469 18.5444 19.7098 19.3757 19.5272 20.5419C19.4326 21.1235 19.5669 21.6797 19.8968 22.0677C20.2001 22.4243 20.6327 22.5729 21.1479 22.5729C22.0323 22.5729 22.5227 22.0042 22.5227 22.0042L22.4785 22.2803C22.4618 22.3859 22.543 22.4804 22.6495 22.4804H23.5439C23.6855 22.4804 23.8062 22.3773 23.8284 22.2369L24.3655 18.8374C24.3819 18.7328 24.3006 18.6378 24.1941 18.6378ZM22.8097 20.571C22.7144 21.1384 22.2634 21.5193 21.689 21.5193C21.4011 21.5193 21.1701 21.4268 21.022 21.2515C20.8752 21.0775 20.8201 20.8296 20.8662 20.5537C20.9562 19.991 21.4136 19.5978 21.9792 19.5978C22.2613 19.5978 22.4905 19.6914 22.6417 19.8682C22.7935 20.0469 22.8536 20.2962 22.8097 20.571Z" fill="#179BD7"/>
<path d="M10.8754 14.8149L11.1304 13.1952L10.5624 13.1821H7.8501L9.73501 1.23028C9.74077 1.19419 9.75986 1.16055 9.78765 1.13666C9.81544 1.11277 9.85108 1.09961 9.88814 1.09961H14.4615C15.9798 1.09961 17.0275 1.41555 17.5746 2.03915C17.831 2.3317 17.9944 2.6374 18.0734 2.97382C18.1562 3.32683 18.1578 3.74857 18.0768 4.26296L18.0709 4.3005V4.63009L18.3275 4.77539C18.5435 4.88996 18.715 5.02112 18.8466 5.1713C19.0661 5.42142 19.208 5.73931 19.2679 6.1162C19.3298 6.50382 19.3094 6.96505 19.208 7.48725C19.091 8.08793 18.9018 8.61109 18.6463 9.03918C18.4112 9.43362 18.1119 9.76071 17.7565 10.0143C17.4171 10.2552 17.0139 10.438 16.558 10.5551C16.1162 10.67 15.6126 10.7282 15.0602 10.7282H14.7043C14.4498 10.7282 14.2025 10.8198 14.0086 10.9842C13.814 11.1519 13.6852 11.3809 13.6458 11.6316L13.619 11.7774L13.1684 14.632L13.1479 14.7369C13.1426 14.7701 13.1333 14.7867 13.1197 14.7979C13.1075 14.808 13.09 14.8149 13.0728 14.8149H10.8754Z" fill="#253B80"/>
<path d="M18.5706 4.33984C18.557 4.42711 18.5414 4.51634 18.5239 4.608C17.9206 7.70455 15.8573 8.77428 13.222 8.77428H11.8802C11.5579 8.77428 11.2864 9.0083 11.2361 9.3262L10.5491 13.6832L10.3546 14.9181C10.3219 15.1268 10.4829 15.315 10.6934 15.315H13.0733C13.3551 15.315 13.5944 15.1103 13.6388 14.8324L13.6622 14.7114L14.1104 11.8679L14.1391 11.7119C14.1829 11.4331 14.4228 11.2283 14.7046 11.2283H15.0606C17.3662 11.2283 19.1713 10.2921 19.6989 7.58315C19.9192 6.4515 19.8051 5.5066 19.222 4.84203C19.0455 4.64164 18.8266 4.47538 18.5706 4.33984Z" fill="#179BD7"/>
<path d="M17.9394 4.08952C17.8474 4.0627 17.7522 4.03832 17.6547 4.01639C17.5567 3.99494 17.4562 3.97592 17.3529 3.95935C16.9911 3.90084 16.5947 3.87305 16.17 3.87305H12.5855C12.4972 3.87305 12.4134 3.89303 12.3383 3.92912C12.173 4.00858 12.0502 4.1651 12.0204 4.35671L11.2577 9.18657L11.2358 9.32747C11.2861 9.00958 11.5577 8.77554 11.8799 8.77554H13.2217C15.857 8.77554 17.9205 7.70534 18.5236 4.60927C18.5415 4.51761 18.5567 4.42839 18.5703 4.34112C18.4178 4.26018 18.2524 4.19094 18.0745 4.13194C18.0307 4.11731 17.9853 4.10318 17.9394 4.08952Z" fill="#222D65"/>
<path d="M12.0209 4.35535C12.0507 4.16373 12.1736 4.00723 12.3388 3.92824C12.4145 3.89215 12.4978 3.87217 12.586 3.87217H16.1707C16.5954 3.87217 16.9917 3.89996 17.3534 3.95847C17.4569 3.97504 17.5574 3.99406 17.6553 4.01551C17.7529 4.03746 17.8479 4.06184 17.9401 4.08864C17.9858 4.1023 18.0312 4.11643 18.0755 4.13058C18.2535 4.18957 18.4188 4.2593 18.5714 4.33975C18.7509 3.19542 18.57 2.41629 17.9513 1.71077C17.2692 0.934082 16.0381 0.601562 14.4627 0.601562H9.88927C9.56744 0.601562 9.29305 0.835584 9.24323 1.15397L7.33838 13.2286C7.30077 13.4675 7.48505 13.6831 7.72589 13.6831H10.5495L11.2584 9.1852L12.0209 4.35535Z" fill="#253B80"/>
</svg>
