<svg width="34" height="15" viewBox="0 0 34 15" fill="none" xmlns="http://www.w3.org/2000/svg">
<path fill-rule="evenodd" clip-rule="evenodd" d="M18.407 2.25238L16.0365 2.76114V0.839176L18.407 0.339844V2.25238ZM8.77354 1.43359L6.46908 1.92351L6.45964 9.47003C6.45964 10.8644 7.50798 11.8913 8.90576 11.8913C9.68021 11.8913 10.2469 11.75 10.5585 11.5804V9.66788C10.2563 9.79036 8.76409 10.2237 8.76409 8.82938V5.48479H10.5585V3.47803H8.76409L8.77354 1.43359ZM3.19224 5.36085C2.69168 5.36085 2.38946 5.50217 2.38946 5.8696C2.38946 6.27078 2.90959 6.44726 3.55487 6.66619C4.60683 7.02311 5.9914 7.49289 5.99725 9.23304C5.99725 10.9195 4.64669 11.8899 2.68223 11.8899C1.87001 11.8899 0.982227 11.7297 0.103889 11.3528V9.11056C0.897226 9.54394 1.89834 9.86427 2.68223 9.86427C3.21113 9.86427 3.58891 9.72295 3.58891 9.28957C3.58891 8.84518 3.02507 8.64207 2.34437 8.39685C1.30771 8.02339 0 7.55229 0 5.98266C0 4.31507 1.27501 3.31641 3.19224 3.31641C3.97613 3.31641 4.75058 3.43888 5.53447 3.74979V5.96382C4.81669 5.57754 3.91002 5.36085 3.19224 5.36085ZM13.4958 4.17347L13.3447 3.47629H11.3047V11.72H13.6658V6.13312C14.223 5.40767 15.1675 5.53957 15.4603 5.64321V3.47629C15.158 3.36323 14.053 3.15596 13.4958 4.17347ZM16.0365 3.47656H18.407V11.7203H16.0365V3.47656ZM34.0003 7.6314C34.0003 5.21952 32.8292 3.31641 30.5908 3.31641C28.343 3.31641 26.983 5.21952 26.983 7.61255C26.983 10.4484 28.5886 11.8804 30.893 11.8804C32.0169 11.8804 32.8669 11.6261 33.5092 11.268V9.38377C32.8669 9.7041 32.1303 9.90195 31.1953 9.90195C30.2791 9.90195 29.4669 9.58162 29.363 8.4699H33.9814C33.9814 8.41802 33.9848 8.30019 33.9887 8.16442L33.9887 8.1641V8.16402V8.16382C33.994 7.97922 34.0003 7.76158 34.0003 7.6314ZM29.3347 6.73593C29.3347 5.67132 29.9864 5.22852 30.5814 5.22852C31.1575 5.22852 31.7714 5.67132 31.7714 6.73593H29.3347ZM21.4856 4.05127C21.8162 3.74979 22.4112 3.31641 23.3367 3.31641C24.9895 3.31641 26.5478 4.80499 26.5573 7.53719C26.5573 10.5238 25.0178 11.8805 23.3273 11.8805C22.4962 11.8805 21.9956 11.5319 21.6556 11.2869L21.6462 13.9532L19.285 14.4525V3.46715H21.3628L21.4856 4.05127ZM21.655 9.36518C21.8816 9.61013 22.2122 9.80798 22.7694 9.80798C23.6383 9.80798 24.2238 8.86584 24.2238 7.60338C24.2238 6.36918 23.6288 5.4082 22.7694 5.4082C22.2311 5.4082 21.8911 5.59663 21.6455 5.86985L21.655 9.36518Z" fill="#6461FC"/>
</svg>
