<svg width="33" height="12" viewBox="0 0 33 12" fill="none" xmlns="http://www.w3.org/2000/svg">
<path fill-rule="evenodd" clip-rule="evenodd" d="M8.16689 11.074H5.33979L3.21982 2.9862C3.11919 2.61416 2.90554 2.28525 2.59127 2.13023C1.80696 1.74067 0.942702 1.43064 -0.00012207 1.27427V0.962891H4.55411C5.18266 0.962891 5.65407 1.43064 5.73264 1.97387L6.8326 7.80789L9.65832 0.962891H12.4068L8.16689 11.074ZM13.9784 11.074H11.3085L13.507 0.962891H16.177L13.9784 11.074ZM19.6314 3.76475C19.71 3.22017 20.1814 2.90879 20.7314 2.90879C21.5957 2.83061 22.5371 2.98697 23.3228 3.37519L23.7942 1.19822C23.0085 0.886833 22.1443 0.730469 21.36 0.730469C18.7686 0.730469 16.8829 2.13101 16.8829 4.07479C16.8829 5.55351 18.2186 6.32994 19.1614 6.79769C20.1814 7.26409 20.5743 7.57547 20.4957 8.04187C20.4957 8.74147 19.71 9.05285 18.9257 9.05285C17.9829 9.05285 17.0401 8.81965 16.1772 8.43008L15.7058 10.6084C16.6486 10.9966 17.6686 11.153 18.6114 11.153C21.5171 11.2298 23.3228 9.83063 23.3228 7.73049C23.3228 5.08577 19.6314 4.93075 19.6314 3.76475ZM32.6663 11.074L30.5463 0.962891H28.2692C27.7978 0.962891 27.3263 1.27427 27.1692 1.74067L23.2435 11.074H25.9921L26.5407 9.59665H29.9177L30.232 11.074H32.6663ZM28.663 3.6875L29.4473 7.49822H27.2487L28.663 3.6875Z" fill="#172B85"/>
</svg>
